<svg version="1.1" xmlns="http://www.w3.org/2000/svg" viewBox="0 0 2048 2048" width="2048" height="2048">
  <path fill="rgb(1,1,1)" fill-rule="evenodd" 
    d="M 516.461 296.526 L 517.431 296.455 C 540.301 294.919 573.129 295.8 596.51 295.771 L 741.04 295.719 L 1177.93 295.688 L 1518.84 295.727 L 1619.71 295.682 C 1634.29 295.667 1660.34 294.848 1673.91 296.231 C 1696.08 298.634 1716.96 307.837 1733.69 322.577 C 1752.7 339.458 1767.31 369.197 1768.06 394.469 C 1768.55 411.017 1768.18 429.3 1768.14 446.013 L 1768.1 537.725 L 1768.16 830.917 L 1768.2 1006.64 C 1768.21 1024.27 1769.48 1074.23 1767.44 1089.34 C 1764.58 1110.68 1755.31 1130.64 1740.87 1146.59 C 1715.87 1173.82 1691.63 1180.59 1656.6 1182.08 C 1655.59 1208.97 1651.67 1230.32 1634.44 1252.14 C 1616.36 1275.03 1593.04 1289.58 1563.93 1292.96 C 1561.64 1293.33 1558.94 1293.6 1556.6 1293.66 C 1529.29 1294.41 1501.57 1294.1 1474.25 1294.06 L 1331.11 1294.02 L 860.897 1294.08 L 547.192 1294.04 L 460.146 1294.07 C 446.002 1294.14 420.239 1294.92 406.968 1293.4 C 384.284 1290.94 362.969 1281.34 346.1 1265.97 C 306.39 1229.79 311.69 1187.17 311.902 1139.06 L 311.981 1048.92 L 312.027 746.777 L 311.933 578.607 C 311.926 560.585 310.737 513.339 312.964 497.482 C 316.024 476.2 325.595 456.386 340.363 440.758 C 363.655 415.627 390.88 408.92 423.459 407.814 C 426.517 378.524 424.569 364.48 444.501 338.147 C 462.534 314.321 486.95 300.584 516.461 296.526 z 
       M 521.698 338.3 C 524.606 337.672 542.248 337.839 546.461 337.851 L 601.347 337.981 L 837.038 337.961 L 1386.4 337.943 L 1569.15 337.915 C 1602.05 337.914 1635.86 337.596 1668.03 338.199 C 1699.64 338.793 1726.45 370.632 1725.88 401.112 C 1725.73 409.784 1726.14 418.46 1726.07 427.1 C 1725.97 439.517 1726.07 451.926 1726.07 464.329 L 1726.03 624.507 L 1726 925.1 L 1726.11 1021.73 C 1726.17 1073.12 1734.6 1123.95 1671.76 1139.31 C 1667.31 1140.08 1660.66 1139.95 1655.99 1140.02 L 1655.97 688.508 L 1655.94 563.978 C 1656 517.987 1661.6 475.195 1625.8 439.202 C 1609.03 422.567 1587.2 411.971 1563.76 409.077 C 1549.95 407.332 1533.19 407.928 1519.01 407.962 L 1453.77 408.077 L 1231.5 408.033 L 465.955 407.973 C 465.665 370.618 484.611 345.378 521.698 338.3 z" />

  <path fill="rgb(36,128,75)" d="M 466.101 450.497 L 468.252 450.452 C 550.656 449.278 635.519 450.27 718.144 450.259 L 1202.84 450.295 L 1446.18 450.344 L 1517.36 450.223 C 1530.81 450.195 1544.9 449.761 1558.28 450.893 C 1583.69 453.043 1609.14 476.844 1612.32 502.382 C 1614.89 523.012 1613.8 547.059 1613.79 568.196 L 1613.56 695.517 L 1613.84 1139.75 L 1523.99 1139.77 L 843.651 1139.8 L 623.245 1139.75 L 562.672 1139.86 C 534.106 1139.95 507.299 1142.83 485.76 1120.76 C 477.801 1112.75 468.223 1096.33 467.263 1084.73 C 465.553 1064.04 466.182 1040.29 466.217 1019.45 L 466.311 896.899 L 466.101 450.497 z" />
  
  <path fill="rgb(36,128,75)" d="M 407.27 451.259 C 412.25 450.561 418.582 450.751 423.709 450.723 C 424.957 500.725 423.97 555.404 424.004 605.702 L 423.937 917.549 L 423.866 1027.25 C 423.835 1044.37 422.909 1078.52 425.431 1093.45 C 428.981 1114.96 439.124 1134.83 454.458 1150.31 C 470.945 1167.05 492.551 1177.81 515.847 1180.87 C 528.995 1182.66 545.241 1182.11 558.71 1182.07 L 621.136 1181.97 L 844.488 1181.93 L 1613.73 1182.07 C 1612.31 1221.77 1591.37 1249.85 1549.72 1251.6 L 769.396 1251.68 L 536.226 1251.66 L 462.889 1251.46 C 446.849 1251.52 430.935 1251.44 414.852 1251.41 C 389.028 1251.35 359.424 1226.19 356.189 1200.48 C 353.27 1177.27 354.696 1148.37 354.69 1124.17 L 354.682 960.066 L 354.731 668.002 L 354.346 565.234 C 354.327 547.926 354.13 530.657 354.611 513.351 C 355.513 480.901 375.666 457.6 407.27 451.259 z" />

  <path fill="rgb(254,254,253)" d="M 1027.2 48.5095 C 1030.8 51.9473 1038.25 61.9791 1041.66 66.3376 L 1068.86 101.254 L 1141.71 194.873 C 1154.21 210.929 1166.77 228.116 1179.75 243.644 C 1142 243.916 1104.25 243.995 1066.5 243.881 L 914.572 243.819 C 936.176 201.721 963.647 160.164 986.544 118.517 C 999.258 95.3929 1013.29 70.8988 1027.2 48.5095 z" />
  <path fill="rgb(254,254,253)" d="M 928.374 1346.09 L 1194.86 1346.07 C 1167.1 1380.35 1138.49 1418.58 1110.96 1453.6 C 1090.53 1479.49 1062.42 1513.84 1043.95 1540.32 C 1033.05 1524.99 1014.7 1491.34 1004.26 1473.81 C 978.746 1431.37 953.449 1388.8 928.374 1346.09 z" />
  <path fill="rgb(254,254,253)" d="M 1822.11 641.323 C 1836.26 647.753 1873.61 672.068 1888.96 681.2 L 1968.29 728.611 C 1982.48 737.136 2000.92 747.553 2014.25 756.955 C 1987.61 779.454 1956.5 802.061 1928.96 824.263 C 1894.27 852.698 1856.84 879.78 1822.15 908.802 L 1822.11 641.323 z" />
  <path fill="rgb(254,254,253)" d="M 257.013 657.273 C 258.735 660.501 257.909 896.743 257.901 923.949 C 224.81 895.964 187.645 868.502 153.757 840.667 C 125.027 819.121 95.3658 793.91 66.5133 771.544 C 85.8154 758.685 113.87 743.082 134.302 730.836 L 257.013 657.273 z" />
</svg>
