<svg version="1.1" xmlns="http://www.w3.org/2000/svg" style="display: block;" viewBox="0 0 1024 1024" width="256" height="256" preserveAspectRatio="none">
<path transform="translate(0,0)" fill="rgb(233,154,198)" d="M 421.624 237.023 C 421.791 236.057 421.756 235.658 421.765 234.727 C 422.259 181.016 467.672 128.212 519.097 115.342 C 530.72 112.433 541.497 119.039 550.603 125.096 C 554.811 120.557 558.417 115.541 563.028 111.639 C 572.376 103.729 603.834 97.615 609.214 88.97 C 622.203 68.0999 624.551 32.6272 639.345 13.1353 C 643.289 7.93955 654.001 3.59708 660.729 3.57807 C 672.924 3.54361 681.101 11.481 689.28 19.3523 C 699.199 26.3842 706.049 30.54 708.532 43.5661 C 710.607 54.4529 705.618 64.63 705.172 73.8909 C 725.592 77.6873 730.063 84.2206 744.862 97.0043 C 750.899 88.2545 759.387 81.8617 769.964 79.793 C 778.709 78.1325 787.753 80.0516 795.07 85.1199 C 796.864 86.3836 805.117 93.7228 806.09 95.2775 C 831.027 109.259 829.189 133.277 828.58 158.144 C 827.985 182.404 826.045 207.119 824.252 231.347 C 867.631 229.482 923.74 222.652 963.859 242.023 C 972.636 246.262 980.679 253.071 988.094 259.297 C 996.832 266.234 1006.05 275.368 1010.74 285.622 C 1019.3 304.383 1019.76 330.459 1001.26 343.595 C 994.981 348.051 990.725 348.642 983.421 350.332 C 966.084 346.206 963.736 343.835 952.657 329.615 L 946.063 323.304 C 939.101 317.591 940.735 313.449 936.329 307.44 C 926.561 309.161 911.1 304.219 903.141 305.121 C 883.083 307.394 834.046 306.248 817.277 312.781 C 815.587 316.86 813.9 340.817 812.991 347.076 C 807.533 384.641 800.367 495.493 786.863 523.883 C 783.664 530.783 777.944 536.195 770.878 539.007 C 752.966 546.28 738.89 538.301 728.692 523.83 C 724.488 519.996 720.061 515.929 716.708 511.349 C 708.564 500.226 704.676 478.568 710.122 465.721 C 712.451 460.226 719.662 450.38 720.576 444.566 C 722.306 433.548 735.1 327.508 734.622 325.386 C 724.49 328.213 696.913 332.558 684.49 335.053 C 650.587 342.057 616.76 349.424 583.015 357.153 C 475.146 383.343 367.93 412.152 261.461 443.555 C 248.297 447.461 199.291 463.351 189.497 463.754 C 184.235 463.994 179.012 462.757 174.417 460.183 C 167.464 456.37 163.847 451.635 158.913 445.682 C 148.962 435.338 137.734 423.205 143.128 407.469 C 149.724 388.223 171.145 384.765 188.382 379.868 C 219.134 371.129 249.927 362.298 280.548 353.071 C 290.619 350.02 305.467 347.382 314.611 342.837 L 314.984 342.648 C 322.036 342.539 358.824 331.201 366.989 328.509 C 368.195 328.505 475.759 300.881 481.233 298.404 C 478.437 297.714 474.872 298.269 472.217 297.638 C 457.302 294.094 451.507 289.567 442.956 277.851 C 435.485 270.872 432.714 267.283 426.167 259.596 C 425.124 252.677 422.854 245.296 421.624 237.023 z M 564.363 278.315 C 556.597 272.428 554.066 269.239 548.988 261.399 L 546.819 260.742 C 536.37 270.806 516.978 285.056 504.844 292.607 C 509.828 292.913 557.4 280.337 564.363 278.315 z M 613.406 267.597 C 616.724 267.458 638.659 262.308 644.188 261.355 C 639.9 257.295 638.365 255.741 634.758 250.947 C 632.797 246.87 632.541 246.135 628.906 243.527 C 624.287 252.146 616.173 262.229 613.406 267.597 z M 698.953 250.316 C 704.215 249.878 729.409 246.127 732.377 243.12 C 720.543 243.216 718.169 242.543 707.858 237.019 C 704.058 242.042 702.007 244.755 698.953 250.316 z"/>
<path transform="translate(0,0)" fill="rgb(0,0,0)" d="M 158.913 445.682 C 180.487 447.887 202.366 438.89 222.942 432.73 L 294.87 411.553 C 359.187 393.143 423.758 375.63 488.563 359.02 C 570.818 337.678 653.859 319.49 737.504 304.494 C 736.564 310.505 734.901 319.585 734.622 325.386 C 724.49 328.213 696.913 332.558 684.49 335.053 C 650.587 342.057 616.76 349.424 583.015 357.153 C 475.146 383.343 367.93 412.152 261.461 443.555 C 248.297 447.461 199.291 463.351 189.497 463.754 C 184.235 463.994 179.012 462.757 174.417 460.183 C 167.464 456.37 163.847 451.635 158.913 445.682 z"/>
<path transform="translate(0,0)" fill="rgb(0,0,0)" d="M 798.182 294.855 C 818.903 291.154 924.114 281.949 936.851 297.493 C 938.023 300.666 936.971 304.025 936.329 307.44 C 926.561 309.161 911.1 304.219 903.141 305.121 C 883.083 307.394 834.046 306.248 817.277 312.781 C 815.587 316.86 813.9 340.817 812.991 347.076 C 807.533 384.641 800.367 495.493 786.863 523.883 C 783.664 530.783 777.944 536.195 770.878 539.007 C 752.966 546.28 738.89 538.301 728.692 523.83 C 746.18 524.365 748.507 524.19 763.859 515.973 C 772.607 501.611 775.284 486.353 777.925 470.022 C 785.441 423.546 789.501 376.629 794.649 329.857 C 795.922 318.298 797.907 306.445 798.182 294.855 z"/>
<path transform="translate(0,0)" fill="rgb(0,0,0)" d="M 806.09 95.2775 C 831.027 109.259 829.189 133.277 828.58 158.144 C 827.985 182.404 826.045 207.119 824.252 231.347 C 817.601 232.647 810.94 233.461 804.224 234.36 C 808.198 206.414 808.156 173.33 809.953 144.98 C 811.025 128.063 811.163 112.174 806.127 95.8462 C 806.114 95.6566 806.102 95.4671 806.09 95.2775 z"/>
<path transform="translate(0,0)" fill="rgb(0,0,0)" d="M 442.956 277.851 C 447.881 278.21 456.089 280.563 459.942 280.629 C 489.703 281.131 511.251 258.4 531.531 241.778 C 533.278 241.869 532.836 241.935 534.15 244.849 C 536.452 249.952 541.688 254.484 545.795 258.712 L 546.819 260.742 C 536.37 270.806 516.978 285.056 504.844 292.607 C 495.679 295.129 490.809 297.303 481.233 298.404 C 478.437 297.714 474.872 298.269 472.217 297.638 C 457.302 294.094 451.507 289.567 442.956 277.851 z"/>
<path transform="translate(0,0)" fill="rgb(0,0,0)" d="M 690.625 219.255 C 713.956 235.107 732.07 220.098 747.916 202.942 C 744.757 214.924 745.329 233.395 741.572 242.504 L 732.377 243.12 C 720.543 243.216 718.169 242.543 707.858 237.019 C 704.058 242.042 702.007 244.755 698.953 250.316 C 694.741 250.222 650.093 259.76 645.123 261.581 L 644.188 261.355 C 639.9 257.295 638.365 255.741 634.758 250.947 C 637.459 247.891 639.442 247.775 643.366 247.873 C 667.386 248.476 676.827 237.753 690.625 219.255 z"/>
<path transform="translate(0,0)" fill="rgb(0,0,0)" d="M 988.094 259.297 C 996.832 266.234 1006.05 275.368 1010.74 285.622 C 1019.3 304.383 1019.76 330.459 1001.26 343.595 C 994.981 348.051 990.725 348.642 983.421 350.332 C 966.084 346.206 963.736 343.835 952.657 329.615 L 959.179 330.553 C 965.159 332.772 974.792 330.932 980.499 328.363 C 995.097 321.793 997.74 307.444 997.605 292.849 C 997.482 279.591 993.772 271.378 988.094 259.297 z"/>
<path transform="translate(0,0)" fill="rgb(0,0,0)" d="M 560.889 264.95 C 585.528 268.586 602.894 240.016 614.189 222.891 C 618.769 234.423 619.838 235.168 628.906 243.527 C 624.287 252.146 616.173 262.229 613.406 267.597 C 608.742 269.721 567.258 279.365 564.363 278.315 C 556.597 272.428 554.066 269.239 548.988 261.399 L 560.889 264.95 z"/>
<path transform="translate(0,0)" fill="rgb(0,0,0)" d="M 689.28 19.3523 C 699.199 26.3842 706.049 30.54 708.532 43.5661 C 710.607 54.4529 705.618 64.63 705.172 73.8909 C 700.032 72.8404 690.418 73.109 684.813 73.1038 C 686.159 52.0217 693.29 42.1306 689.28 19.3523 z"/>
<path transform="translate(0,0)" fill="rgb(245,170,211)" d="M 946.063 323.304 C 950.363 319.486 954.656 318.785 959.21 322.855 C 960.499 325.358 960.015 327.901 959.179 330.553 L 952.657 329.615 L 946.063 323.304 z"/>
<path transform="translate(0,0)" fill="rgb(245,170,211)" d="M 545.795 258.712 C 551.084 255.87 555.959 253.681 560.345 259.042 C 560.76 261.457 560.852 262.5 560.889 264.95 L 548.988 261.399 L 546.819 260.742 L 545.795 258.712 z"/>
<path transform="translate(0,0)" fill="rgb(254,254,254)" d="M 656.641 22.2106 C 666.152 22.0663 667.263 22.5171 673.142 30.1261 C 673.107 46.9624 662.613 85.121 663.834 91.8114 C 675.728 98.3477 700.129 74.6318 727.466 107.273 C 731.41 125.77 724.891 147.023 720.626 165.423 C 730.403 147.656 750.986 112.997 766.901 99.7989 C 776.982 91.4394 786.971 100.392 792.845 110.455 C 794.983 159.845 788.092 205.333 784.824 253.659 C 828.678 248.099 963.227 226.465 979.445 286.058 C 981.684 294.283 980.973 316.944 967.715 313.705 C 963.291 312.624 955.202 316.118 955.372 304.934 C 960.71 268.408 908.875 272.821 881.762 271.64 C 851.513 270.322 814.927 276.915 782.398 279.122 C 778.237 326.17 773.293 373.147 767.567 420.031 C 765.457 436.969 760.667 492.916 749.599 503.391 C 747.009 505.885 743.493 507.18 739.904 506.963 C 727.81 506.218 724.913 485.33 725.223 475.905 C 725.493 467.733 736.549 462.221 737.598 454.377 C 739.851 437.523 741.807 420.614 743.767 403.723 C 748.367 364.063 752.572 324.358 756.383 284.615 C 726.753 287.663 687.921 296.224 658.128 302.204 C 566.083 321.418 474.711 343.719 384.164 369.07 C 340.797 380.613 297.577 392.701 254.513 405.33 C 227.524 413.077 197.113 421.609 170.775 430.766 C 139.163 406.099 184.068 399.57 203.099 393.778 C 222.86 387.569 242.752 381.785 262.761 376.429 C 292.164 368.361 321.511 359.41 351.234 351.317 C 457.031 322.923 562.514 294.775 670.072 273.379 C 686.149 270.181 743.248 258.749 758.242 258.939 C 759.601 251.84 760.383 245.45 760.844 238.261 C 762.98 204.969 767.622 171.84 767.302 138.401 C 755.824 155.708 721.98 228.196 697.717 202.341 C 689.419 193.498 701.637 130.262 703.407 115.787 C 688.152 115.735 674.202 117.486 659.219 120.526 C 654.67 140.082 652.027 180.58 652.054 200.766 C 659.602 187.146 677.281 159.101 687.411 189.16 C 681.507 205.971 669.067 219.531 655.737 230.932 C 653.745 231.012 648.578 231.31 646.876 231.072 C 618.579 227.109 627.522 171.719 629.008 151.914 C 622.037 173.249 601.225 211.964 587.907 230.941 C 584.537 235.743 576.197 243.028 571.636 246.995 L 560.002 246.894 C 556.712 244.558 552.614 240.041 549.692 237.036 C 547.854 226.19 547.813 215.484 547.491 204.487 C 530.599 220.198 491.752 257.026 470.396 261.86 C 424.148 272.328 439.012 207.472 455.031 185.181 C 475.143 157.195 494.417 138.87 528.974 131.251 C 557.77 148.409 527.119 157.07 514.199 163.17 C 483.182 177.812 468.904 206.053 463.388 238.753 C 477.521 232.007 482.986 225.735 495.099 216.75 C 510.027 205.678 532.272 180.465 547.843 172.377 C 580.141 155.599 575.716 188.56 573.449 208.956 C 580.471 196.533 603.551 150.387 607.66 138.585 C 601.587 140.824 581.649 151.824 576.441 148.55 C 544.034 128.181 607.446 112.189 621.635 105.977 C 630.563 90.2755 636.059 68.0496 642.664 51.1486 C 646.497 41.3392 647.252 27.7281 656.641 22.2106 z"/>
<path transform="translate(0,0)" fill="rgb(0,0,0)" d="M 678.869 133.556 C 679.978 133.733 681.031 134.187 682.106 134.57 C 684.1 139.277 681.075 156.871 678.4 160.881 C 668.681 156.512 671.757 148.986 673.172 139.898 C 673.815 135.77 675.457 135.609 678.869 133.556 z"/>
<path transform="translate(0,0)" fill="rgb(233,154,198)" d="M 75.0805 262.623 C 80.4175 256.039 91.7076 233.557 96.2904 225.21 C 111.053 199.061 124.417 172.02 139.29 145.918 C 148.768 129.283 160.213 95.3217 183.179 96.6157 C 196.082 97.3427 203.671 103.228 212.134 111.975 C 252.008 140.325 223.668 163.238 208.46 195.795 C 205.58 201.962 196.015 216.332 195.092 221.852 C 195.639 223.967 195.618 224.087 197.214 225.468 C 202.303 223.57 211.061 208.274 216.225 202.417 C 232.043 184.475 259.204 174.425 278.039 197.211 C 299.677 157.878 336.723 136.087 374.861 172.814 C 394.639 186.718 395.084 194.087 400.147 217.166 C 401.688 219.434 402.73 221.317 404.904 222.984 C 412.701 228.52 415.371 229.963 421.624 237.023 C 422.854 245.296 425.124 252.677 426.167 259.596 C 420.305 280.476 401.512 299.528 385.797 313.837 C 380.373 318.776 372.332 323.793 366.989 328.509 C 358.824 331.201 322.036 342.539 314.984 342.648 C 293.862 330.578 281.011 347.185 261.344 355.377 C 235.854 365.995 225.502 360.841 202.232 349.27 C 197.931 360.907 195.359 370.938 183.01 376.183 C 164.183 384.18 150.113 374.819 139.722 360.458 C 135.857 355.703 130.451 353.284 126.075 346.397 C 110.715 374.653 95.016 414.306 54.1252 397.526 C 49.236 395.52 43.0408 387.798 40.0501 383.371 C 34.5483 378.89 26.2131 371.069 24.1225 364.084 C 15.4721 335.182 11.2352 304.862 5.16352 275.251 C 2.94651 264.439 3.91272 254.448 12.4711 246.067 C 33.1626 228.47 48.2326 238.127 64.2624 254.786 C 69.6417 257.336 71.2868 258.036 75.0805 262.623 z"/>
<path transform="translate(0,0)" fill="rgb(0,0,0)" d="M 404.904 222.984 C 412.701 228.52 415.371 229.963 421.624 237.023 C 422.854 245.296 425.124 252.677 426.167 259.596 C 420.305 280.476 401.512 299.528 385.797 313.837 C 380.373 318.776 372.332 323.793 366.989 328.509 C 358.824 331.201 322.036 342.539 314.984 342.648 C 293.862 330.578 281.011 347.185 261.344 355.377 C 235.854 365.995 225.502 360.841 202.232 349.27 C 197.931 360.907 195.359 370.938 183.01 376.183 C 164.183 384.18 150.113 374.819 139.722 360.458 C 158.232 364.392 178.281 358.789 181.488 337.847 C 182.053 334.155 181.786 330.24 182.904 326.721 C 193.535 336.225 196.37 339.395 211.983 341.991 C 232.442 345.393 262.907 330.754 278.841 318.246 C 282.941 320.112 295.594 324.685 300.09 324.729 C 340.216 325.119 377.843 293.232 399.247 261.65 C 408.244 248.374 409.152 237.839 404.904 222.984 z"/>
<path transform="translate(0,0)" fill="rgb(0,0,0)" d="M 40.0501 383.371 C 75.2898 385.839 81.7657 375.816 99.096 346.1 C 107.675 331.39 115.659 315.849 123.857 300.889 C 121.981 313.569 120.587 334.726 126.075 346.397 C 110.715 374.653 95.016 414.306 54.1252 397.526 C 49.236 395.52 43.0408 387.798 40.0501 383.371 z"/>
<path transform="translate(0,0)" fill="rgb(0,0,0)" d="M 172.059 212.498 C 184.385 187.752 204.719 157.802 213.371 131.896 C 214.934 127.216 212.701 117.293 212.134 111.975 C 252.008 140.325 223.668 163.238 208.46 195.795 C 205.58 201.962 196.015 216.332 195.092 221.852 C 185.939 215.812 182.861 214.164 172.059 212.498 z"/>
<path transform="translate(0,0)" fill="rgb(0,0,0)" d="M 374.861 172.814 C 394.639 186.718 395.084 194.087 400.147 217.166 C 394.102 211.696 387.882 209.428 379.961 208.747 C 380.246 192.791 379.639 188.056 374.861 172.814 z"/>
<path transform="translate(0,0)" fill="rgb(0,0,0)" d="M 64.2624 254.786 C 69.6417 257.336 71.2868 258.036 75.0805 262.623 C 73.5613 267.633 69.2638 275.061 66.6258 279.682 C 66.29 273.374 62.5447 259.273 64.2624 254.786 z"/>
<path transform="translate(0,0)" fill="rgb(254,254,254)" d="M 329.326 172.142 C 330.9 172.052 332.475 171.995 334.051 171.972 C 340.921 171.893 350.951 173.159 355.438 178.655 C 385.071 214.951 318.709 262.206 298.572 281.838 C 337.836 279.947 348.301 253.48 371.456 228.34 C 372.353 227.367 377.377 225.201 378.908 224.56 C 386.76 229.108 387.825 230.609 391.992 238.367 C 379.858 271.167 313.11 333.421 280.434 295.195 C 267.677 307.437 247.776 318.293 231.001 323.583 C 203.86 328.909 186.765 316.809 191.603 287.662 C 196.553 257.846 218.882 220.798 243.43 203.086 C 251.302 202.463 254.865 201.383 261.579 205.992 C 276.042 218.349 263.086 237.303 245.196 238.707 C 234.641 239.536 214.854 286.011 216.224 297.73 C 223.675 307.162 264.272 276.003 272.326 270.493 C 276.002 235.553 293.403 185.672 329.326 172.142 z"/>
<path transform="translate(0,0)" fill="rgb(233,154,198)" d="M 334.557 196.8 L 336.566 198.186 C 338.817 210.9 315.398 231.857 306.663 239.766 L 305.014 239.381 L 304.918 237.585 C 313.196 222.848 320.553 206.144 334.557 196.8 z"/>
<path transform="translate(0,0)" fill="rgb(254,254,254)" d="M 182.246 114.364 C 193.827 115.172 201.566 120.803 195.804 132.19 C 181.529 160.403 164.965 189.262 150.034 217.035 L 107.348 295.214 C 98.9521 310.799 90.8864 327.315 81.6372 342.339 C 41.247 407.948 34.397 333.765 28.227 302.358 C 25.5809 289.176 22.3932 275.773 22.3774 262.357 C 39.8841 241.402 47.8172 265.856 50.3689 281.547 C 52.9572 297.463 57.5511 313.031 58.6725 329.405 C 99.9127 261.792 134.231 187.94 174.171 119.466 C 175.915 116.475 179.162 115.35 182.246 114.364 z"/>
<path transform="translate(0,0)" fill="rgb(254,254,254)" d="M 169.014 230.173 C 180.151 230.162 180.683 232.095 185.994 241.28 C 177.512 262.686 171.168 287.652 166.177 310.131 C 163.023 324.337 171.117 332.594 157.32 343.418 C 118.481 352.489 154.22 256.925 159.052 242.098 C 161.026 236.039 163.195 232.542 169.014 230.173 z"/>
<path transform="translate(0,0)" fill="rgb(0,0,0)" d="M 253.645 255.45 C 255.919 255.902 254.949 255.409 256.656 256.98 L 256.209 259.561 C 253.898 262.924 250.613 264.869 247.261 267.19 L 245.612 267.383 L 245.325 265.774 C 247.552 261.687 250.494 258.837 253.645 255.45 z"/>
</svg>