<svg version="1.1" xmlns="http://www.w3.org/2000/svg" style="display: block;" viewBox="0 0 4096 4096" width="4096" height="4096" preserveAspectRatio="none">
<!-- <path transform="translate(0,0)" fill="rgb(255,255,255)" d="M 0 0 L 828.269 0 L 845.095 0 L 3248.76 0 L 3265.48 0 L 4096 0 L 4096 776.688 L 4096 793.456 L 4096 4096 L 0 4096 L 0 2451.47 L 0 2434.55 L 0 1737.29 L 0 1718.5 L 0 793.57 L 0 776.678 L 0 0 z"/> -->
<path transform="translate(0,0)" fill="rgb(0,0,0)" d="M 890.584 2380.59 L 1088.48 2443.01 C 1022.89 2463.73 955.787 2484.01 890.594 2505.38 L 890.594 2464 L 111.623 2464 C 102.1 2480.82 92.8161 2492.32 72.9807 2498.16 C 58.0537 2502.48 42.0077 2500.5 28.5814 2492.68 C 12.4252 2483.12 4.61636 2469.05 0 2451.47 L 0 2434.55 C 5.32781 2416.51 11.9058 2402.54 29.4445 2392.7 C 42.69 2385.41 58.3045 2383.72 72.8031 2388.01 C 91.5364 2393.55 98.0795 2402.12 109.599 2415.97 L 890.584 2416 L 890.584 2380.59 z"/>
<path transform="translate(0,0)" fill="rgb(0,0,0)" d="M 3524.53 785.638 C 3539.19 779.26 3575.2 768.956 3591.87 763.723 L 3721.93 722.969 L 3721.93 767.658 C 3808.74 768.052 3895.55 767.994 3982.36 767.482 C 3991.7 749.935 4001.87 736.842 4021.83 730.492 C 4036.55 725.772 4052.57 727.3 4066.13 734.719 C 4083.74 744.4 4090.53 758.71 4096 776.688 L 4096 793.456 C 4091.8 808.277 4087.5 818.65 4075.43 829.076 C 4063.71 839.141 4048.36 843.919 4033 842.277 C 4012.38 840.137 4001.48 830.465 3989.12 815.665 L 3721.94 815.665 L 3721.94 847.72 L 3524.53 785.638 z"/>
<path transform="translate(0,0)" fill="rgb(0,0,0)" d="M 350.004 722.939 L 477.165 762.96 C 495.448 768.69 530.454 778.614 547.043 785.738 C 481.759 806.172 414.899 826.412 350 847.687 L 350 803.396 L 112.434 803.396 C 104.361 820.494 95.3434 832.366 76.7512 839.2 C 62.3662 844.426 46.4867 843.667 32.6656 837.093 C 13.37 827.813 5.69517 813.149 0 793.57 L 0 776.678 C 5.72399 757.604 12.8483 743.377 31.9129 733.712 C 45.5508 726.908 61.3642 725.923 75.7409 730.982 C 90.8896 736.174 97.6416 743.743 107.382 755.406 L 350.004 755.406 L 350.004 722.939 z"/>
<path transform="translate(0,0)" fill="rgb(0,0,0)" d="M 350.001 1666.04 L 547.727 1728.15 C 481.94 1749.3 416.031 1770.06 350.004 1790.45 L 350.004 1746.14 L 112.611 1746.14 C 104.396 1763.28 95.7984 1775.16 76.9833 1782.17 C 62.5038 1787.57 46.4394 1786.79 32.5519 1780.01 C 14.8789 1771.43 6.63514 1757.85 0.882437 1740.08 L 0 1737.29 L 0 1718.5 C 6.50589 1699.3 14.1629 1685.02 33.9495 1675.85 C 47.792 1669.48 63.6336 1669.04 77.8087 1674.63 C 91.1077 1679.74 98.4486 1687.11 106.808 1698.15 L 350 1698.15 L 350.001 1666.04 z"/>
<path transform="translate(0,0)" fill="rgb(0,0,0)" d="M 828.269 0 L 845.095 0 C 862.035 4.38341 876.124 12.5464 885.457 27.848 C 893.518 41.0652 895.801 57.0123 891.77 71.9602 C 886.551 91.1361 875.912 100.76 859.591 110.334 L 859.591 270.591 L 898.477 270.591 C 878.059 336.59 857.263 402.47 836.088 468.23 L 774.252 270.59 L 811.473 270.594 L 811.39 110.589 C 796.265 100.022 786.103 90.4539 780.968 71.8943 C 776.852 57.072 778.972 41.2114 786.837 27.9909 C 796.752 11.5291 810.598 4.81072 828.269 0 z"/>
<path transform="translate(0,0)" fill="rgb(0,0,0)" d="M 3248.76 0 L 3265.48 0 C 3323.6 13.7809 3332.65 78.979 3280.25 110.61 L 3280.25 270.594 L 3319.65 270.594 L 3257.6 467.978 C 3236.9 413.816 3213.01 328.015 3195.01 270.604 L 3232.16 270.591 L 3232.16 109.817 C 3217.75 100.878 3207.48 90.4719 3202.33 73.9005 C 3197.78 59.2481 3199.4 43.375 3206.81 29.9438 C 3216.34 12.5508 3230.53 5.12921 3248.76 0 z"/>
<path transform="translate(0,0)" fill="rgb(0,0,0)" d="M 1730.06 1827.08 C 1735.25 1836.45 1748.1 1879.81 1751.96 1892.14 L 1792.8 2023.03 L 1754.42 2022.99 L 1754.42 2071.72 C 1772.6 2084.22 1789.63 2098.32 1805.31 2113.85 C 1877.06 2186.14 1869.62 2241.31 1869.55 2335.17 L 1869.38 2508.14 L 1869.42 3161.85 C 1885.52 3171.68 1896.86 3182.77 1901.22 3202 C 1904.62 3217 1901.8 3232.74 1893.39 3245.63 C 1882.05 3262.94 1868.21 3268.27 1849.41 3272.33 C 1829.16 3271.8 1811.14 3265.32 1798.71 3248.46 C 1789.38 3235.63 1785.81 3219.48 1788.88 3203.91 C 1793.05 3183.03 1804.36 3172.4 1821.26 3161.75 L 1821.26 2504.25 L 1821.39 2338.57 C 1821.53 2210.42 1823.81 2173.64 1706.36 2097.69 L 1706.63 2022.98 L 1668.13 2022.99 C 1689.54 1960.25 1709.74 1890.73 1730.06 1827.08 z"/>
<path transform="translate(0,0)" fill="rgb(0,0,0)" d="M 2359.01 1825.37 C 2365.91 1833.04 2415.26 1997.91 2422.12 2020 L 2379.42 2020 L 2379.42 2082.4 C 2229.15 2246.88 2230.12 2402.28 2379.42 2566.74 L 2379.42 2840.06 C 2395.35 2849.73 2406.72 2861.18 2411.08 2880.01 C 2414.56 2895.01 2411.82 2910.78 2403.48 2923.73 C 2392.71 2940.58 2378.84 2946.19 2360.69 2950.41 C 2354.37 2950.34 2349.28 2950.24 2343.06 2948.83 C 2327.7 2945.37 2314.37 2935.9 2306.05 2922.54 C 2297.89 2909.2 2295.59 2893.1 2299.67 2878.02 C 2304.6 2859.57 2315.6 2849.52 2331.27 2840.16 L 2331.25 2584.98 C 2234.03 2473.27 2185.05 2340.56 2245.18 2198.22 C 2267.76 2144.78 2295.23 2107.87 2331.25 2063.61 L 2331.25 2020 L 2297.75 2020 L 2359.01 1825.37 z"/>
<path transform="translate(0,0)" fill="rgb(0,0,0)" d="M 3217.26 2370 C 3219.77 2369.6 3218.06 2369.69 3222.26 2371.04 C 3224.52 2380.93 3223.54 2395.98 3223.38 2406.55 L 3976.58 2406.23 C 3997.87 2371.8 4040.32 2357.26 4072.81 2388.4 C 4108.6 2422.7 4074.05 2496.65 4022.56 2486.71 C 4001.9 2482.72 3989.85 2470.87 3978.26 2454.36 L 3931 2454.38 L 3223.69 2454.99 L 3223.88 2492.92 C 3160.3 2471.6 3090.33 2451.37 3025.78 2431.51 C 3044.85 2424.02 3074.22 2415.69 3094.25 2409.33 L 3217.26 2370 z"/>
<path transform="translate(0,0)" fill="rgb(0,0,0)" d="M 2567.64 728.152 C 2574.36 727.911 2580.47 727.648 2587.11 728.947 C 2602.63 732.003 2616.22 741.271 2624.73 754.599 C 2632.99 767.806 2635.54 783.803 2631.79 798.926 C 2626.85 818.486 2616.21 828.028 2599.86 837.997 L 2599.86 1375.39 L 2626.14 1401.76 L 2654.44 1373.46 C 2663.37 1388.86 2746.95 1547.98 2746.89 1554.34 L 2743.41 1553.5 C 2685.21 1524.55 2624.51 1491.48 2566.61 1461.23 L 2592.07 1435.77 L 2551.76 1395.31 L 2551.64 838.379 C 2536.31 828.176 2526.13 818.544 2520.9 800.019 C 2516.72 785.079 2518.85 769.079 2526.79 755.75 C 2536.3 739.822 2550.37 732.525 2567.64 728.152 z"/>
<path transform="translate(0,0)" fill="rgb(0,0,0)" d="M 3563.42 1378.31 L 3565.14 1379.54 C 3567.27 1386.33 3566.38 1409.8 3566.3 1418.34 L 3976.28 1418.34 C 3997.74 1379.34 4041.69 1365.18 4072.92 1401.81 C 4083.42 1413.91 4088.51 1429.77 4087.03 1445.72 C 4082.09 1501.9 4013.39 1515.5 3979.2 1466.33 L 3931 1466.33 L 3566.3 1466.33 L 3566.3 1501.8 L 3368.68 1439.69 C 3426.64 1418.75 3503.31 1397.18 3563.42 1378.31 z"/>
<path transform="translate(0,0)" fill="rgb(0,0,0)" d="M 3563.81 1958.32 L 3564.98 1959.27 C 3567.37 1966.37 3566.39 1990.11 3566.31 1999.02 L 3976.23 1999.02 C 3989.26 1976.17 4005.48 1960.86 4033.85 1962.79 C 4049.63 1963.99 4064.27 1971.47 4074.48 1983.56 C 4124.53 2042.09 4029.8 2122.32 3979.6 2046.98 L 3933 2046.98 L 3566.31 2047.03 L 3566.31 2081.88 L 3368.86 2019.79 C 3432.02 1998.52 3499.93 1978.43 3563.81 1958.32 z"/>
<path transform="translate(0,0)" fill="rgb(0,0,0)" d="M 3843.44 1658.32 C 3846.13 1664.76 3845.06 1693.08 3844.99 1701.86 L 3974.76 1701.78 C 3994.77 1663.9 4035.19 1645.35 4069.19 1678.47 C 4081.24 1689.98 4087.86 1706.04 4087.44 1722.7 C 4085.97 1778.75 4017.42 1797.79 3981.02 1749.86 L 3933 1749.86 L 3844.98 1749.86 L 3844.98 1782.18 C 3779.14 1761.8 3713.42 1741.07 3647.81 1719.97 C 3708.62 1698.61 3781.15 1677.86 3843.44 1658.32 z"/>
</svg>