<svg version="1.1" xmlns="http://www.w3.org/2000/svg" style="display: block;" viewBox="0 0 4096 4096" width="4096" height="4096" preserveAspectRatio="none">
<!-- <path transform="translate(0,0)" fill="rgb(255,255,255)" d="M 0 0 L 826.733 0 L 845.152 0 L 3248.68 0 L 3265.39 0 L 4096 0 L 4096 778.127 L 4096 793.157 L 4096 4096 L 0 4096 L 0 2451.46 L 0 2434.55 L 0 1737.29 L 0 1718.5 L 0 885.335 L 0 868.435 L 0 0 z"/> -->
<path transform="translate(0,0)" fill="rgb(0,0,0)" d="M 890.564 2380.61 L 1088.49 2443 L 890.574 2505.39 L 890.574 2464 L 111.623 2464 C 102.102 2480.82 92.8159 2492.33 72.9809 2498.17 C 58.0534 2502.49 42.0074 2500.5 28.5829 2492.67 C 12.4302 2483.12 4.61459 2469.05 0 2451.46 L 0 2434.55 C 5.32781 2416.51 11.9058 2402.54 29.4445 2392.7 C 42.69 2385.41 58.3045 2383.72 72.8031 2388.01 C 91.5364 2393.55 98.0795 2402.12 109.599 2415.97 L 890.564 2416 L 890.564 2380.61 z"/>
<path transform="translate(0,0)" fill="rgb(0,0,0)" d="M 3524.58 785.642 C 3542.91 778.126 3574.73 769.169 3594.82 762.861 L 3721.97 722.965 L 3721.97 767.668 L 3982.85 767.659 C 3983.13 767.106 3983.41 766.553 3983.68 766 L 3985.13 763.265 C 3993.6 747.052 4003.85 735.879 4022.04 730.26 C 4036.78 725.77 4052.71 727.451 4066.18 734.918 C 4084.26 745.036 4090.89 759.201 4096 778.127 L 4096 793.157 C 4091.49 808.489 4087.49 818.681 4074.79 829.344 C 4062.92 839.349 4047.44 843.999 4032.02 842.193 C 4012.15 839.889 4001.05 830.469 3989.08 815.658 L 3721.97 815.658 L 3721.97 847.7 C 3656.7 826.416 3590.16 806.167 3524.58 785.642 z"/>
<path transform="translate(0,0)" fill="rgb(0,0,0)" d="M 350 1665.99 L 547.745 1728.13 L 350.004 1790.43 L 350.004 1746.14 L 112.611 1746.14 C 104.396 1763.28 95.7984 1775.16 76.9833 1782.17 C 62.5038 1787.57 46.4394 1786.79 32.5519 1780.01 C 14.8792 1771.43 6.63561 1757.85 0.882466 1740.08 L 0 1737.29 L 0 1718.5 C 6.50641 1699.29 14.1609 1685.03 33.9493 1675.85 C 47.7913 1669.48 63.6341 1669.04 77.8113 1674.62 C 91.1012 1679.73 98.4488 1687.11 106.793 1698.14 L 350 1698.14 L 350 1665.99 z"/>
<path transform="translate(0,0)" fill="rgb(0,0,0)" d="M 350.004 814.325 C 414.353 834.859 482.259 857.136 546.983 876.29 C 490.824 898.625 409.682 918.554 350 939.195 L 350 894.6 L 112.776 894.593 C 104.268 911.763 95.6266 923.79 76.3472 930.806 C 61.6822 936.153 45.4581 935.187 31.5309 928.139 C 13.0563 918.731 5.54793 904.153 0 885.335 L 0 868.435 C 16.2063 812.917 70.4178 802.122 106.992 846.604 L 349.998 846.604 L 350.004 814.325 z"/>
<path transform="translate(0,0)" fill="rgb(0,0,0)" d="M 826.733 0 L 845.152 0 C 862.155 4.6159 875.859 12.473 885.338 27.9191 C 893.338 41.1267 895.605 57.0253 891.616 71.9423 C 886.49 91.0174 875.788 100.742 859.559 110.273 L 859.559 270.536 L 898.582 270.536 C 878.119 335.79 857.844 403.29 836.109 467.973 L 774.286 270.536 L 811.567 270.536 L 811.47 110.631 C 796.731 100.513 786.932 91.6379 781.358 73.8618 C 776.765 59.3026 778.273 43.5034 785.536 30.0756 C 794.788 12.8904 809.087 5.6269 826.733 0 z"/>
<path transform="translate(0,0)" fill="rgb(0,0,0)" d="M 3248.68 0 L 3265.39 0 C 3323.45 13.8959 3332.41 78.7983 3280.21 110.575 L 3280.21 270.536 L 3319.72 270.536 L 3257.69 467.692 C 3249.49 446.564 3241.25 417.606 3234.34 395.625 L 3195.07 270.527 L 3232.22 270.527 L 3232.23 109.898 C 3217.1 100.598 3206.38 89.5223 3201.6 71.8973 C 3197.63 57.0647 3199.83 41.2545 3207.71 28.0751 C 3217.53 11.716 3231.12 4.87898 3248.68 0 z"/>
<path transform="translate(0,0)" fill="rgb(0,0,0)" d="M 960.006 169.675 L 3134.23 169.675 L 3134.23 280 L 3170.81 280 C 3149.19 344.639 3130.79 413.594 3108.11 477.54 L 3046.06 280.002 C 3060.31 279.671 3075.8 284.316 3085.78 276.019 L 3086.24 266.5 L 3086.24 215.396 L 1008.35 215.396 L 1009.37 280 L 1046.44 280 C 1026.04 346.011 1005.27 411.906 984.117 477.681 L 922.038 280.002 L 961.34 280 L 960.006 169.675 z"/>
<path transform="translate(0,0)" fill="rgb(0,0,0)" d="M 1730.06 1827.08 C 1735.25 1836.45 1748.1 1879.81 1751.96 1892.14 L 1792.8 2023.03 L 1754.41 2022.99 L 1754.41 2071.72 C 1772.43 2084.13 1789.32 2098.1 1804.9 2113.46 C 1877.07 2185.87 1869.48 2241.07 1869.41 2335.16 L 1869.23 2508.13 L 1869.27 3161.78 C 1885.51 3171.3 1896.9 3183.04 1901.1 3202.01 C 1904.41 3216.94 1901.58 3232.56 1893.25 3245.38 C 1882.26 3262.13 1868.81 3268.04 1850.1 3271.67 C 1845.42 3271.67 1840.7 3271.62 1836.07 3270.86 C 1820.55 3268.46 1806.66 3259.88 1797.58 3247.07 C 1775.48 3215.32 1791.16 3180.58 1821.27 3161.44 L 1821.27 2501.02 L 1821.41 2337.26 C 1821.52 2210.31 1823.38 2172.94 1706.36 2097.72 L 1706.7 2022.98 L 1668.12 2022.98 C 1689.53 1960.53 1709.81 1890.52 1730.06 1827.08 z"/>
<path transform="translate(0,0)" fill="rgb(0,0,0)" d="M 2359 1825.37 C 2365.89 1833 2415.27 1997.92 2422.12 2020 L 2379.4 2020 L 2379.37 2082.43 C 2227.48 2247.6 2231.52 2401.79 2379.39 2566.72 L 2379.39 2839.97 C 2395.05 2849.38 2406.31 2860.67 2410.81 2879.02 C 2414.48 2893.97 2411.93 2909.76 2403.72 2922.78 C 2393.22 2939.61 2379.34 2945.78 2361 2950.04 C 2295.27 2951.15 2273.06 2876.56 2331.39 2839.59 L 2331.39 2585.06 C 2275.54 2520.32 2228.76 2442.72 2220.67 2356.06 C 2209.6 2237.5 2260.03 2151.26 2331.4 2063.48 L 2331.4 2020 L 2297.75 2020 L 2359 1825.37 z"/>
<path transform="translate(0,0)" fill="rgb(0,0,0)" d="M 3221.9 2368.32 C 3224.48 2375.36 3223.53 2397.95 3223.48 2406.6 L 3976.77 2406.36 C 3989.39 2383.79 4004.61 2371.83 4030.54 2372.01 C 4113.32 2372.61 4100.01 2493.58 4022.59 2486.67 C 4003.9 2485 3988.43 2469.12 3978.13 2454.36 L 3925 2454.38 L 3223.83 2454.6 L 3223.96 2492.91 C 3160.41 2471.55 3090.65 2451.28 3026.22 2431.59 C 3046.51 2423.48 3077.29 2414.66 3098.65 2407.85 L 3221.9 2368.32 z"/>
<path transform="translate(0,0)" fill="rgb(0,0,0)" d="M 1511.34 2759.72 C 1516.77 2766.42 1567.71 2935.09 1574 2955.02 L 1535.81 2955.02 L 1535.76 3642.56 C 1539.62 3645.09 1543.35 3647.64 1546.94 3650.56 C 1559.22 3660.61 1566.99 3675.14 1568.53 3690.93 C 1570 3706.04 1565.4 3721.1 1555.74 3732.81 C 1543.36 3747.53 1528.5 3751.84 1510.24 3753.35 C 1491.15 3750.92 1475.81 3745.35 1464.35 3728.74 C 1455.54 3715.99 1452.27 3700.2 1455.3 3684.99 C 1459.49 3664.34 1470.73 3653.6 1487.67 3643 L 1487.81 2954.76 L 1449.44 2954.6 L 1511.34 2759.72 z"/>
<path transform="translate(0,0)" fill="rgb(0,0,0)" d="M 2563.74 728.433 C 2571.09 728.101 2580.28 727.496 2587.39 729.003 C 2602.7 732.328 2616.07 741.578 2624.59 754.732 C 2632.89 767.873 2635.47 783.836 2631.72 798.922 C 2626.76 818.363 2616.06 827.959 2599.8 837.982 L 2599.8 1375.42 L 2626.02 1401.75 L 2654.47 1373.18 C 2663.69 1389.99 2746.9 1548.06 2747.44 1553.76 L 2743.42 1553.4 L 2566.63 1461.24 L 2592.04 1435.78 L 2551.8 1395.25 L 2551.66 838.512 C 2537.9 828.61 2530.09 823.339 2523.17 806.985 C 2517.08 792.861 2517.03 776.865 2523.02 762.701 C 2531.21 743.553 2545.45 735.227 2563.74 728.433 z"/>
<path transform="translate(0,0)" fill="rgb(0,0,0)" d="M 3563.96 1958.3 L 3565.18 1959.26 C 3567.62 1966.37 3566.63 1990.04 3566.55 1998.98 L 3976.11 1998.98 C 4023.81 1905.57 4134.82 2007.16 4066.51 2064.97 C 4038.75 2088.48 4000.17 2077.35 3979.36 2046.98 L 3931 2046.98 L 3566.52 2046.98 L 3566.52 2081.88 C 3502.19 2063.31 3433.13 2040.11 3368.98 2019.79 C 3431.42 1998.47 3500.57 1978.25 3563.96 1958.3 z"/>
<path transform="translate(0,0)" fill="rgb(0,0,0)" d="M 3562.75 1378.12 L 3565.51 1379.31 C 3567.48 1387.72 3566.63 1408.77 3566.53 1418.34 L 3976.12 1418.34 C 4008.14 1355.67 4093.52 1379.75 4086.66 1444.78 C 4084.78 1461.6 4075.9 1476.86 4062.19 1486.79 C 4031.31 1509.52 3999.3 1494.96 3979.16 1466.34 L 3933 1466.34 L 3566.54 1466.34 L 3566.54 1501.59 L 3368.76 1439.5 C 3422.75 1419.21 3506.34 1395.87 3562.75 1378.12 z"/>
<path transform="translate(0,0)" fill="rgb(0,0,0)" d="M 3843.27 1658.4 C 3846.42 1663.08 3845.1 1694.05 3845.02 1701.85 L 3974.66 1701.76 C 3985.28 1681.26 4005.2 1659.79 4029.69 1661.66 C 4108.93 1667.72 4106.31 1784.44 4021.7 1776.61 C 4003.49 1774.93 3991.49 1763.79 3980.83 1749.86 L 3935 1749.86 L 3845.02 1749.86 L 3845.02 1782.16 C 3779.12 1761.75 3713.33 1741.01 3647.64 1719.93 C 3709.71 1698.59 3780.08 1678.22 3843.27 1658.4 z"/>
</svg>