<svg version="1.1" xmlns="http://www.w3.org/2000/svg" style="display: block;" viewBox="0 0 4096 4096" width="4096" height="4096" preserveAspectRatio="none">
<!-- <path transform="translate(0,0)" fill="rgb(255,255,255)" d="M 0 0 L 826.733 0 L 845.152 0 L 3248.68 0 L 3265.39 0 L 4096 0 L 4096 778.187 L 4096 793.077 L 4096 4096 L 0 4096 L 0 2451.46 L 0 2434.55 L 0 1737.29 L 0 1718.5 L 0 885.335 L 0 868.431 L 0 0 z"/> -->
<path transform="translate(0,0)" fill="rgb(0,0,0)" d="M 567.896 1443.33 C 627.639 1462.1 708.304 1484.69 765.437 1505.67 L 567.891 1567.8 L 567.895 1526.34 L 183.976 1526.34 L 183.976 1930.6 L 567.896 1930.6 L 567.896 1895.33 C 628.34 1914.32 707.245 1936.49 765.326 1957.68 C 699.862 1978.26 633.031 1998.54 567.896 2019.8 L 567.896 1978.6 L 135.972 1979.4 L 135.972 1751.4 L 111.274 1751.44 C 99.7805 1768.61 89.056 1780.7 67.0259 1784.76 C 52.0049 1787.55 36.4976 1784.04 24.1425 1775.05 C 10.7871 1765.24 4.37391 1752.85 0 1737.29 L 0 1718.5 C 6.50144 1699.33 14.1847 1684.9 33.9707 1675.8 C 47.8236 1669.48 63.6506 1669.08 77.8058 1674.69 C 93.0658 1680.73 101.454 1689.83 109.995 1703.41 L 135.972 1703.4 L 135.972 1478.34 L 567.896 1478.33 L 567.896 1443.33 z"/>
<path transform="translate(0,0)" fill="rgb(0,0,0)" d="M 890.564 2380.61 L 1088.49 2443 L 890.574 2505.39 L 890.574 2464 L 111.623 2464 C 102.101 2480.82 92.8144 2492.32 72.9807 2498.16 C 58.0535 2502.49 42.0074 2500.5 28.583 2492.67 C 12.4301 2483.12 4.61463 2469.05 0 2451.46 L 0 2434.55 C 5.32781 2416.51 11.9058 2402.54 29.4445 2392.7 C 42.69 2385.41 58.3045 2383.72 72.8031 2388.01 C 91.5364 2393.55 98.0795 2402.12 109.599 2415.97 L 890.564 2416 L 890.564 2380.61 z"/>
<path transform="translate(0,0)" fill="rgb(0,0,0)" d="M 3524.57 785.646 C 3539.79 779.113 3572.62 769.822 3589.99 764.363 L 3721.97 722.971 L 3721.97 767.668 L 3982.87 767.659 C 3983.14 767.107 3983.42 766.555 3983.7 766.003 L 3985.13 763.274 C 3993.58 747.055 4003.87 735.867 4022.04 730.257 C 4036.78 725.771 4052.71 727.453 4066.18 734.919 C 4084.34 745.077 4090.92 759.275 4096 778.187 L 4096 793.077 C 4091.51 808.448 4087.52 818.661 4074.79 829.349 C 4062.92 839.35 4047.44 843.997 4032.02 842.189 C 4012.14 839.884 4001.05 830.472 3989.08 815.658 L 3721.97 815.658 L 3721.97 847.7 L 3524.57 785.646 z"/>
<path transform="translate(0,0)" fill="rgb(0,0,0)" d="M 350.004 814.325 C 414.357 834.859 482.251 857.134 546.983 876.29 C 490.824 898.625 409.682 918.554 350 939.195 L 350 894.6 L 112.776 894.593 C 104.268 911.763 95.6266 923.79 76.3472 930.806 C 61.6822 936.153 45.4581 935.187 31.5309 928.139 C 13.0563 918.731 5.54793 904.153 0 885.335 L 0 868.431 C 16.2111 812.916 70.4185 802.123 106.992 846.604 L 349.998 846.604 L 350.004 814.325 z"/>
<path transform="translate(0,0)" fill="rgb(0,0,0)" d="M 826.733 0 L 845.152 0 C 862.155 4.61591 875.859 12.473 885.338 27.9191 C 893.338 41.1267 895.605 57.0253 891.616 71.9423 C 886.49 91.0174 875.788 100.742 859.559 110.273 L 859.559 270.536 L 898.581 270.536 C 878.179 336.524 857.363 402.383 836.137 468.111 L 774.287 270.536 L 811.567 270.536 L 811.47 110.631 C 796.731 100.513 786.932 91.6379 781.358 73.8618 C 776.765 59.3026 778.273 43.5034 785.536 30.0756 C 794.788 12.8904 809.087 5.6269 826.733 0 z"/>
<path transform="translate(0,0)" fill="rgb(0,0,0)" d="M 3248.68 0 L 3265.39 0 C 3323.45 13.8959 3332.41 78.7983 3280.21 110.575 L 3280.21 270.536 L 3319.72 270.536 L 3257.69 467.65 C 3249.57 446.895 3241.39 418.159 3234.57 396.469 L 3195.07 270.527 L 3232.22 270.527 L 3232.23 109.898 C 3217.1 100.598 3206.38 89.5223 3201.6 71.8973 C 3197.63 57.0647 3199.83 41.2545 3207.71 28.0751 C 3217.53 11.716 3231.12 4.87898 3248.68 0 z"/>
<path transform="translate(0,0)" fill="rgb(0,0,0)" d="M 960.006 169.675 L 3134.23 169.675 L 3134.23 280 L 3170.81 280 C 3149.05 344.549 3130.86 413.603 3108.11 477.524 L 3046.06 280.002 C 3060.31 279.671 3075.8 284.316 3085.78 276.019 L 3086.24 266.5 L 3086.24 215.396 L 1008.35 215.396 L 1009.37 280 L 1046.44 280 L 984.147 477.691 L 922.038 280.002 L 961.34 280 L 960.006 169.675 z"/>
<path transform="translate(0,0)" fill="rgb(0,0,0)" d="M 1730.06 1827.08 C 1735.18 1836.31 1747.89 1879.16 1751.66 1891.19 L 1792.8 2023.03 L 1754.41 2022.99 L 1754.41 2071.72 C 1772.43 2084.13 1789.32 2098.1 1804.9 2113.46 C 1877.07 2185.87 1869.48 2241.07 1869.41 2335.16 L 1869.23 2508.13 L 1869.27 3161.78 C 1885.51 3171.3 1896.9 3183.04 1901.1 3202.01 C 1904.41 3216.94 1901.58 3232.56 1893.25 3245.38 C 1882.26 3262.13 1868.81 3268.04 1850.1 3271.67 C 1845.42 3271.67 1840.7 3271.62 1836.07 3270.86 C 1820.55 3268.46 1806.66 3259.88 1797.58 3247.07 C 1775.48 3215.32 1791.16 3180.58 1821.27 3161.44 L 1821.27 2501.02 L 1821.41 2337.26 C 1821.52 2210.15 1823.39 2173.07 1706.36 2097.69 L 1706.71 2022.98 L 1668.14 2022.98 C 1689.55 1960.34 1709.76 1890.66 1730.06 1827.08 z"/>
<path transform="translate(0,0)" fill="rgb(0,0,0)" d="M 2359.01 1825.37 C 2365.93 1833.06 2415.27 1997.9 2422.13 2020 L 2379.4 2020 L 2379.37 2082.43 C 2227.99 2248.16 2231.09 2401.32 2379.39 2566.73 L 2379.39 2839.96 C 2395 2849.36 2406.39 2860.72 2410.87 2879.03 C 2414.54 2893.98 2411.94 2909.79 2403.67 2922.77 C 2392.46 2940.31 2379.13 2945.74 2360.34 2950.21 C 2294.08 2949.43 2273.73 2876.18 2331.38 2839.59 L 2331.38 2584.97 C 2203.08 2437.58 2176.49 2271.68 2295.79 2108.95 C 2307.28 2093.28 2319.13 2078.57 2331.4 2063.48 L 2331.4 2020 L 2297.75 2020 L 2359.01 1825.37 z"/>
<path transform="translate(0,0)" fill="rgb(0,0,0)" d="M 3221.9 2368.32 C 3224.48 2375.36 3223.53 2397.95 3223.48 2406.6 L 3976.78 2406.34 C 3989.4 2383.78 4004.62 2371.83 4030.54 2372.01 C 4113.32 2372.61 4100.01 2493.58 4022.59 2486.67 C 4003.9 2485 3988.43 2469.13 3978.13 2454.36 L 3925 2454.38 L 3223.83 2454.6 L 3223.96 2492.91 C 3160.42 2471.55 3090.65 2451.28 3026.22 2431.59 C 3046.51 2423.48 3077.29 2414.66 3098.65 2407.85 L 3221.9 2368.32 z"/>
<path transform="translate(0,0)" fill="rgb(0,0,0)" d="M 1511.34 2759.72 C 1516.77 2766.42 1567.71 2935.1 1574 2955.02 L 1535.81 2955.02 L 1535.76 3642.56 C 1539.62 3645.09 1543.35 3647.64 1546.94 3650.56 C 1559.22 3660.61 1566.99 3675.14 1568.53 3690.93 C 1570 3706.04 1565.4 3721.1 1555.74 3732.81 C 1543.36 3747.53 1528.5 3751.84 1510.24 3753.35 C 1491.15 3750.92 1475.81 3745.35 1464.36 3728.74 C 1455.54 3715.99 1452.27 3700.2 1455.3 3684.99 C 1459.48 3664.34 1470.73 3653.6 1487.66 3642.99 L 1487.81 2954.76 L 1449.44 2954.6 L 1511.34 2759.72 z"/>
<path transform="translate(0,0)" fill="rgb(0,0,0)" d="M 2563.74 728.433 C 2571.09 728.101 2580.28 727.496 2587.39 729.003 C 2602.7 732.328 2616.07 741.578 2624.59 754.732 C 2632.89 767.873 2635.47 783.836 2631.72 798.922 C 2626.76 818.363 2616.06 827.959 2599.8 837.982 L 2599.8 1375.42 L 2626.02 1401.75 L 2654.47 1373.18 C 2663.4 1389.45 2747.29 1549.25 2747.43 1553.76 L 2743.42 1553.4 L 2566.64 1461.23 L 2592.04 1435.78 L 2551.8 1395.25 L 2551.66 838.512 C 2537.9 828.61 2530.09 823.339 2523.17 806.985 C 2517.08 792.861 2517.03 776.865 2523.02 762.701 C 2531.21 743.553 2545.45 735.227 2563.74 728.433 z"/>
<path transform="translate(0,0)" fill="rgb(0,0,0)" d="M 3563.96 1958.3 L 3565.18 1959.26 C 3567.61 1966.37 3566.61 1990.08 3566.53 1999.02 L 3976.13 1999.02 C 3987.98 1976.55 4006.66 1959.07 4033.78 1961.67 C 4049.58 1963.33 4064.06 1971.24 4073.99 1983.63 C 4123.19 2044.24 4031.97 2120.91 3979.15 2046.98 L 3931 2046.98 L 3566.52 2046.98 L 3566.52 2081.88 C 3503 2063.81 3432.62 2039.85 3369.01 2019.81 C 3431.44 1998.49 3500.58 1978.26 3563.96 1958.3 z"/>
<path transform="translate(0,0)" fill="rgb(0,0,0)" d="M 3562.75 1378.12 L 3565.51 1379.31 C 3567.48 1387.72 3566.63 1408.77 3566.53 1418.34 L 3976.12 1418.34 C 3988.17 1395.77 4003.72 1382.26 4029.58 1382.29 C 4114.11 1382.36 4099.87 1506.64 4020.73 1496.76 C 4003.5 1494.6 3988.82 1479.95 3979.19 1466.34 L 3933 1466.34 L 3566.54 1466.34 L 3566.54 1501.6 L 3368.71 1439.52 C 3422.74 1419.22 3506.31 1395.88 3562.75 1378.12 z"/>
<path transform="translate(0,0)" fill="rgb(0,0,0)" d="M 3843.27 1658.4 C 3846.42 1663.08 3845.1 1694.05 3845.02 1701.85 L 3974.66 1701.76 C 3985.28 1681.26 4005.2 1659.79 4029.69 1661.66 C 4108.93 1667.71 4106.31 1784.44 4021.7 1776.61 C 4003.49 1774.93 3991.49 1763.79 3980.83 1749.86 L 3935 1749.86 L 3845.02 1749.86 L 3845.02 1782.16 C 3779.12 1761.75 3713.33 1741.01 3647.64 1719.93 C 3709.71 1698.59 3780.08 1678.22 3843.27 1658.4 z"/>
</svg>