<svg version="1.1" xmlns="http://www.w3.org/2000/svg" style="display: block;" viewBox="0 0 4096 4096" width="4096" height="4096" preserveAspectRatio="none">
<!-- <path transform="translate(0,0)" fill="rgb(255,255,255)" d="M 0 0 L 826.733 0 L 845.152 0 L 3248.68 0 L 3265.39 0 L 4096 0 L 4096 778.231 L 4096 793.083 L 4096 4096 L 0 4096 L 0 2451.47 L 0 2434.56 L 0 1737.29 L 0 1718.5 L 0 793.57 L 0 776.678 L 0 0 z"/> -->
<path transform="translate(0,0)" fill="rgb(0,0,0)" d="M 567.896 1443.33 C 627.853 1462.18 707.988 1484.64 765.409 1505.68 L 567.891 1567.8 L 567.895 1526.34 L 183.976 1526.34 L 183.976 1698.14 L 350 1698.14 L 350 1665.99 L 547.747 1728.14 L 350.004 1790.43 L 350.004 1746.14 L 183.976 1746.14 L 183.976 1930.6 L 567.896 1930.6 L 567.896 1895.33 C 628.193 1914.27 707.488 1936.53 765.368 1957.7 L 567.896 2019.81 L 567.896 1978.61 L 135.976 1979.4 L 135.976 1746.13 L 113.48 1746.26 C 103.18 1764.49 93.8411 1777.6 71.817 1783.67 C 57.039 1787.76 41.2275 1785.62 28.072 1777.74 C 12.0392 1768.08 5.17782 1754.38 0 1737.29 L 0 1718.5 C 6.50823 1699.28 14.1543 1685.05 33.9483 1675.86 C 47.7898 1669.48 63.6379 1669.02 77.8232 1674.6 C 91.0947 1679.71 98.4612 1687.07 106.722 1698.14 L 135.972 1698.14 L 135.972 1478.34 L 567.896 1478.33 L 567.896 1443.33 z"/>
<path transform="translate(0,0)" fill="rgb(0,0,0)" d="M 890.564 2380.61 L 1088.49 2443 L 890.574 2505.39 L 890.574 2464 L 111.623 2464 C 102.1 2480.82 92.8172 2492.32 72.9807 2498.16 C 58.0548 2502.48 42.0104 2500.5 28.5833 2492.68 C 12.5619 2483.21 4.50822 2469 0 2451.47 L 0 2434.56 C 5.3259 2416.52 11.9015 2402.54 29.4444 2392.7 C 42.6902 2385.41 58.3045 2383.72 72.8031 2388.01 C 91.5369 2393.55 98.0792 2402.12 109.599 2415.97 L 890.564 2416 L 890.564 2380.61 z"/>
<path transform="translate(0,0)" fill="rgb(0,0,0)" d="M 3524.57 785.646 C 3543.69 777.953 3574.06 769.383 3594.71 762.899 L 3721.97 722.957 L 3721.97 767.668 L 3982.85 767.659 C 3983.13 767.106 3983.41 766.553 3983.68 766 L 3985.13 763.265 C 3993.6 747.052 4003.85 735.881 4022.04 730.261 C 4036.78 725.772 4052.71 727.451 4066.18 734.915 C 4084.36 745.083 4090.93 759.302 4096 778.231 L 4096 793.083 C 4091.51 808.453 4087.52 818.661 4074.79 829.349 C 4062.92 839.35 4047.44 843.997 4032.02 842.189 C 4012.14 839.884 4001.05 830.472 3989.08 815.658 L 3721.97 815.658 L 3721.97 847.7 L 3524.57 785.646 z"/>
<path transform="translate(0,0)" fill="rgb(0,0,0)" d="M 350.004 722.988 L 481.653 764.334 C 496.559 769.022 534.711 780.029 547.057 785.735 C 481.703 806.188 415.005 826.435 350 847.668 L 350 803.396 L 112.446 803.396 C 104.095 820.514 95.8003 832.179 76.7506 839.191 C 62.3681 844.424 46.4884 843.671 32.6652 837.102 C 13.3755 827.83 5.69324 813.138 0 793.57 L 0 776.678 C 5.72326 757.611 12.8517 743.362 31.9133 733.705 C 45.552 726.909 61.3633 725.931 75.7354 730.996 C 90.8853 736.19 97.6438 743.756 107.41 755.406 L 350.004 755.406 L 350.004 722.988 z"/>
<path transform="translate(0,0)" fill="rgb(0,0,0)" d="M 826.733 0 L 845.152 0 C 862.155 4.6159 875.859 12.473 885.338 27.9191 C 893.338 41.1267 895.605 57.0253 891.616 71.9424 C 886.49 91.0174 875.788 100.742 859.559 110.273 L 859.559 270.536 L 898.582 270.536 C 878.119 335.79 857.844 403.29 836.109 467.973 L 774.286 270.536 L 811.567 270.536 L 811.47 110.631 C 796.731 100.513 786.932 91.6379 781.358 73.8618 C 776.765 59.3026 778.273 43.5034 785.536 30.0756 C 794.788 12.8904 809.087 5.6269 826.733 0 z"/>
<path transform="translate(0,0)" fill="rgb(0,0,0)" d="M 3248.68 0 L 3265.39 0 C 3323.45 13.8959 3332.41 78.7983 3280.21 110.575 L 3280.21 270.536 L 3319.72 270.536 L 3257.69 467.692 C 3249.49 446.564 3241.25 417.606 3234.34 395.625 L 3195.07 270.527 L 3232.22 270.527 L 3232.23 109.898 C 3217.1 100.598 3206.38 89.5223 3201.6 71.8973 C 3197.63 57.0647 3199.83 41.2545 3207.71 28.0751 C 3217.53 11.716 3231.12 4.87898 3248.68 0 z"/>
<path transform="translate(0,0)" fill="rgb(0,0,0)" d="M 1730.06 1827.08 C 1734.35 1834.01 1747.55 1877.94 1750.78 1888.26 L 1792.8 2023.03 L 1754.41 2022.99 L 1754.41 2071.72 C 1772.43 2084.13 1789.32 2098.1 1804.9 2113.46 C 1877.07 2185.86 1869.48 2241.07 1869.41 2335.16 L 1869.23 2508.13 L 1869.27 3161.79 C 1885.52 3171.29 1896.91 3183.05 1901.1 3202.01 C 1904.41 3216.94 1901.58 3232.56 1893.25 3245.38 C 1882.26 3262.13 1868.81 3268.04 1850.1 3271.67 C 1845.42 3271.67 1840.7 3271.61 1836.07 3270.86 C 1820.55 3268.46 1806.66 3259.88 1797.58 3247.07 C 1775.48 3215.32 1791.16 3180.58 1821.27 3161.44 L 1821.27 2501.02 L 1821.41 2337.26 C 1821.52 2210.07 1823.39 2173.14 1706.36 2097.68 L 1706.71 2022.98 L 1668.05 2022.98 C 1689.43 1961.62 1710.07 1889.71 1730.06 1827.08 z"/>
<path transform="translate(0,0)" fill="rgb(0,0,0)" d="M 2359.01 1825.37 C 2365.93 1833.06 2415.27 1997.9 2422.13 2020 L 2379.4 2020 L 2379.37 2082.43 C 2228.25 2247.36 2230.81 2402.05 2379.37 2566.72 L 2379.37 2839.98 C 2395.05 2849.36 2406.32 2860.67 2410.81 2879.02 C 2414.48 2893.97 2411.92 2909.76 2403.72 2922.78 C 2393.21 2939.61 2379.35 2945.78 2361 2950.04 C 2295.29 2951.15 2273.06 2876.58 2331.38 2839.59 L 2331.39 2585.01 C 2275.95 2520.79 2229.65 2443.9 2220.99 2358.04 C 2208.95 2238.73 2259.5 2151.9 2331.4 2063.48 L 2331.4 2020 L 2297.75 2020 L 2359.01 1825.37 z"/>
<path transform="translate(0,0)" fill="rgb(0,0,0)" d="M 3221.91 2368.32 C 3224.42 2374.2 3223.51 2398.62 3223.48 2406.6 L 3976.77 2406.36 C 3989.39 2383.79 4004.6 2371.83 4030.54 2372.01 C 4113.32 2372.61 4100.01 2493.58 4022.59 2486.67 C 4003.9 2485 3988.43 2469.13 3978.13 2454.36 L 3925 2454.38 L 3223.83 2454.6 L 3223.96 2492.91 C 3160.36 2471.56 3090.7 2451.29 3026.22 2431.59 C 3046.51 2423.48 3077.28 2414.66 3098.65 2407.85 L 3221.91 2368.32 z"/>
<path transform="translate(0,0)" fill="rgb(0,0,0)" d="M 2563.74 728.433 C 2571.09 728.101 2580.28 727.496 2587.39 729.003 C 2602.7 732.328 2616.07 741.578 2624.59 754.732 C 2632.89 767.873 2635.47 783.836 2631.72 798.922 C 2626.76 818.363 2616.06 827.959 2599.8 837.982 L 2599.8 1375.42 L 2626.02 1401.75 L 2654.47 1373.18 C 2663.39 1389.42 2747.28 1549.23 2747.46 1553.77 L 2743.42 1553.4 L 2566.63 1461.24 L 2592.04 1435.78 L 2551.81 1395.25 L 2551.66 838.522 C 2537.91 828.619 2530.09 823.326 2523.17 806.985 C 2517.08 792.861 2517.03 776.865 2523.02 762.701 C 2531.2 743.554 2545.45 735.227 2563.74 728.433 z"/>
<path transform="translate(0,0)" fill="rgb(0,0,0)" d="M 3563.95 1958.29 L 3565.18 1959.26 C 3567.62 1966.37 3566.63 1990.04 3566.55 1998.98 L 3976.1 1998.98 C 4009.69 1934.51 4094.09 1962.37 4086.7 2025.77 C 4084.69 2041.91 4076.27 2056.55 4063.34 2066.41 C 4032.19 2090.46 3999.89 2075.88 3979.15 2046.98 L 3929 2046.98 L 3566.52 2046.98 L 3566.52 2081.88 C 3503 2063.82 3432.59 2039.83 3368.98 2019.79 C 3433.31 1998.74 3499.3 1978.67 3563.95 1958.29 z"/>
<path transform="translate(0,0)" fill="rgb(0,0,0)" d="M 3562.75 1378.12 L 3565.51 1379.31 C 3567.48 1387.72 3566.63 1408.76 3566.53 1418.32 L 3976.12 1418.34 C 4008.14 1355.67 4093.52 1379.75 4086.66 1444.78 C 4084.78 1461.6 4075.9 1476.86 4062.19 1486.79 C 4031.31 1509.52 3999.3 1494.96 3979.16 1466.34 L 3933 1466.34 L 3566.54 1466.34 L 3566.54 1501.65 L 3368.71 1439.52 C 3422.63 1419.24 3506.4 1395.85 3562.75 1378.12 z"/>
<path transform="translate(0,0)" fill="rgb(0,0,0)" d="M 3843.27 1658.4 C 3846.42 1663.08 3845.1 1694.05 3845.02 1701.85 L 3974.66 1701.76 C 3985.28 1681.26 4005.2 1659.79 4029.69 1661.66 C 4108.93 1667.71 4106.31 1784.44 4021.7 1776.61 C 4003.49 1774.93 3991.49 1763.79 3980.83 1749.86 L 3935 1749.86 L 3845.02 1749.86 L 3845.02 1782.16 C 3779.12 1761.75 3713.33 1741.01 3647.64 1719.93 C 3709.71 1698.59 3780.08 1678.22 3843.27 1658.4 z"/>
</svg>